<?xml version="1.0" encoding="iso-8859-1"?>
<!-- Generator: Adobe Illustrator 19.0.0, SVG Export Plug-In . SVG Version: 6.00 Build 0)  -->
<svg version="1.1" id="Capa_1" xmlns="http://www.w3.org/2000/svg" xmlns:xlink="http://www.w3.org/1999/xlink" x="0px" y="0px"
	 viewBox="0 0 470 470" style="enable-background:new 0 0 470 470;" xml:space="preserve">
<g>
	<path d="M424.515,252.853h-12.878c-1.617-53.02-20.41-99.729-53.671-134.015h43.431c4.143,0,7.5-3.358,7.5-7.5s-3.357-7.5-7.5-7.5
		h-55.323c-0.568-8.505-2.094-16.75-4.474-24.631c-0.064-0.271-0.144-0.535-0.237-0.794C327.293,33.045,284.933,0,235,0
		c-49.923,0-92.276,33.031-106.354,78.386c-0.103,0.283-0.191,0.572-0.259,0.87c-2.371,7.866-3.893,16.096-4.459,24.583H68.603
		c-4.143,0-7.5,3.358-7.5,7.5s3.357,7.5,7.5,7.5h43.432c-33.261,34.285-52.054,80.995-53.671,134.015H45.485
		c-17.605,0-31.929,14.323-31.929,31.929s14.323,31.93,31.929,31.93h27.723l31.716,117.372c5.441,20.14,26.047,35.917,46.909,35.917
		h166.334c20.862,0,41.468-15.776,46.909-35.917l31.716-117.372h27.723c17.605,0,31.929-14.324,31.929-31.93
		S442.12,252.853,424.515,252.853z M235,15c39.673,0,73.817,24.109,88.562,58.443H195.688c-4.143,0-7.5,3.358-7.5,7.5
		s3.357,7.5,7.5,7.5h132.888c1.221,4.992,2.058,10.134,2.465,15.395H138.958c0.407-5.261,1.244-10.403,2.465-15.395h24.265
		c4.143,0,7.5-3.358,7.5-7.5s-3.357-7.5-7.5-7.5h-19.25C161.183,39.109,195.327,15,235,15z M424.515,301.712h-23.67l0.962-3.559
		c1.081-3.999-1.285-8.116-5.284-9.197c-3.994-1.081-8.115,1.284-9.196,5.284l-36.73,135.931
		c-3.637,13.459-18.487,24.83-32.429,24.83H151.833c-13.941,0-28.792-11.371-32.429-24.83L82.674,294.24
		c-1.08-3.999-5.202-6.367-9.196-5.284c-3.999,1.081-6.365,5.198-5.284,9.197l0.962,3.559h-23.67
		c-9.335,0-16.929-7.595-16.929-16.93s7.594-16.929,16.929-16.929h20.264c4.143,0,7.5-3.358,7.5-7.5
		c0-57.854,21.534-107.985,60.678-141.515h202.146c39.145,33.53,60.678,83.661,60.678,141.515c0,4.142,3.357,7.5,7.5,7.5h20.264
		c9.335,0,16.929,7.594,16.929,16.929S433.85,301.712,424.515,301.712z"/>
	<path d="M235,318.396c16.422,0,29.782-13.36,29.782-29.782c0-16.422-13.36-29.783-29.782-29.783s-29.782,13.36-29.782,29.783
		C205.218,305.036,218.578,318.396,235,318.396z M235,273.832c8.151,0,14.782,6.631,14.782,14.783
		c0,8.151-6.631,14.782-14.782,14.782s-14.782-6.631-14.782-14.782C220.218,280.463,226.849,273.832,235,273.832z"/>
	<path d="M312.952,206.416v-23.669c0-4.142-3.357-7.5-7.5-7.5s-7.5,3.358-7.5,7.5v23.669c-16.492,3.467-28.913,18.125-28.913,35.633
		v10.129c0,4.142,3.357,7.5,7.5,7.5s7.5-3.358,7.5-7.5v-2.629h13.913v22.888c0,4.142,3.357,7.5,7.5,7.5s7.5-3.358,7.5-7.5v-22.888
		h21.414c4.143,0,7.5-3.358,7.5-7.5C341.866,224.541,329.445,209.883,312.952,206.416z M285.395,234.549
		c3.046-8.119,10.888-13.914,20.058-13.914s17.013,5.794,20.059,13.914H285.395z"/>
	<path d="M287.964,348.136C273.37,361.13,254.561,368.287,235,368.287s-38.37-7.157-52.964-20.151
		c-3.091-2.754-7.832-2.48-10.589,0.613c-2.754,3.094-2.479,7.834,0.614,10.589c17.343,15.444,39.695,23.949,62.938,23.949
		s45.596-8.505,62.938-23.949c3.094-2.754,3.368-7.495,0.614-10.589C295.798,345.656,291.058,345.381,287.964,348.136z"/>
	<path d="M292.951,314.405c-9.656,0-18.945,3.538-26.157,9.961c-8.751,7.795-20.042,12.089-31.794,12.089
		s-23.043-4.293-31.795-12.089c-7.211-6.424-16.5-9.961-26.156-9.961c-21.688,0-39.332,17.644-39.332,39.332
		c0,11.29,4.813,22.005,13.206,29.397c23.081,20.327,53.726,31.985,84.077,31.985s60.996-11.658,84.077-31.985
		c8.393-7.392,13.206-18.107,13.206-29.397C332.283,332.049,314.639,314.405,292.951,314.405z M309.163,371.877
		c-20.38,17.948-47.411,28.242-74.163,28.242s-53.783-10.294-74.163-28.242c-5.16-4.545-8.12-11.157-8.12-18.14
		c0-13.417,10.915-24.332,24.332-24.332c5.973,0,11.719,2.188,16.179,6.162c11.502,10.246,26.337,15.889,41.772,15.889
		s30.271-5.643,41.771-15.889c4.461-3.973,10.207-6.162,16.18-6.162c13.417,0,24.332,10.916,24.332,24.332
		C317.283,360.72,314.323,367.332,309.163,371.877z"/>
	<path d="M157.048,272.437c0,4.142,3.357,7.5,7.5,7.5s7.5-3.358,7.5-7.5v-22.888h13.913v2.629c0,4.142,3.357,7.5,7.5,7.5
		s7.5-3.358,7.5-7.5v-10.129c0-17.508-12.421-32.166-28.913-35.633v-23.669c0-4.142-3.357-7.5-7.5-7.5s-7.5,3.358-7.5,7.5v23.669
		c-16.493,3.467-28.914,18.125-28.914,35.633c0,4.142,3.357,7.5,7.5,7.5h21.414V272.437z M164.548,220.636
		c9.17,0,17.012,5.794,20.058,13.914h-40.116C147.535,226.43,155.378,220.636,164.548,220.636z"/>
</g>
<g>
</g>
<g>
</g>
<g>
</g>
<g>
</g>
<g>
</g>
<g>
</g>
<g>
</g>
<g>
</g>
<g>
</g>
<g>
</g>
<g>
</g>
<g>
</g>
<g>
</g>
<g>
</g>
<g>
</g>
</svg>
